<svg xmlns="http://www.w3.org/2000/svg" style="background: transparent; background-color: transparent;" xmlns:xlink="http://www.w3.org/1999/xlink" version="1.1" width="920px" height="535px" viewBox="-0.5 -0.5 920 535" content="&lt;mxfile&gt;&lt;diagram id=&quot;arch-v3&quot; name=&quot;Architecture v3&quot;&gt;7V1Rd+K2Ev4t94FzNg/k2NjG8Bgg2abdnps9tN326R5hC9CNsVzZJLC/viNLMrblEGANgeLd7NoajWRppPk0M7KcljVcrD4zFM1/pT4OWh3DX7WsUavTMQ2nDxdOWQtKzzUFYcaIL5k2hDH5jlVJSV0SH8cFxoTSICFRkejRMMReUqAhxuhrkW1Kg+JTIzTDGmHsoUCnfiN+MhfUvmFs6D9hMpvLJ/dUxgIpXkmI58inrzmSdd+yhozSRNwtVkMccNkpsYhyD2/kZu1iOEx2KtATJV5QsJR9kw1L1qqz2Ie+y2RIQ7gM5skigJQJt/oTZSNiumSekldXDhJiM6zYXEHj1ecKynZ+xnSBE7YGBoYDlJCXouiRHMFZxrfpJdzIjr7R6a7W6WFAl/4Do9AHLjHolTG2NEnEzzjx+AAa0PGIkjBJW+EM4AdKDcU/B1iHnHLbcSqIVTRXJ5o6G1zMqieUiVU0VyeaOhtPqVYXiVU019FbXC5tVpQ2S6XhxxrQZRKQEA8zjeUynsKADGlAWSp/C/4+8CEdTEkQ5Oi9of3wAIM/iBNGn3EuZ5r+gRwfxXPsy2pfMEsIaPMXNMHBE41JQmgIeROaJHSRY7gLyIxnJDQCKpIpD6Y6ZkU14C2VOGVmaTlz+CNRHIluTcmKt2MAmh/xzMVqxjHyFr3G9i3DQmsePd6eASTFXZHL45N1mk7WLfrH+4BXWzVL5roSjNZKPWT6dQNtijTPoZqi/ZAquroq0llIEtrqgJZaJpfd7zFIu2M8AcI3KnkhKjkaWbY9vB6VlJO2Fn20VBGlkMpcOoFCZq09skHQ1w0CZRN9gEHQ1zp99/QIhM8owa9o3aDOhaDOvWs67uBqUAdF5H8zOUVrQZ5s6ZfIYxunMwX4fNkHeShL5nRGQxTcb6j5kcArkvyZu/+LjwDMQJEareSApIl1LvGEGYHW84EVtBB68mc+kauJJzdVpal1PlWubCd0VEhYQEf7o9BRtaYwMN2AG59xhMLCCHX/XnLXdeAJzbvj7ZlNPllcxeHedsW127lJZWFw7WjHqbpwXtOMVmmGqgfuZvz6BS0mPlKPhRaLJ4tMRZ6wXdrStWQbsqtsS+wxGgQTxNqlEh1uinLW/M2NynRMScvd7Nm7k4tTrG7vCLVZ8y5jzRu5pmGczZrXOfKaF4hJW5OhXVzurH7/1tEXPLNiwasDV/eMvf3LFrzC4lZ7LFAWfeI4tRlwxyoOuGNnA64qEXNQltsM5h1j3A/I2CQAvv2kkiXlOKVA7Dv8tmWU5pJowWZmZVLZbbLZ2mQbfx3ngiyD5XQKQxfOGuC/FOC/Lmcn/juuB/Xtsmqalah/LDdH33xIFdEYffmaU8cRRj430XCSpMHPr0sM7I1qXoZqDh6MntltVHNf1ewaRdXsnjL+oG9FNG7uZbu59y84tbGeGPVwHEPdja970bja+Lq1QWtlaPdInq7yug52bOt0SOvykneL5NoVzm733J3dA/xLq2rf8MRwP1qHaEFHg2b9rEmgT79wSMQhCpNH8EasZYwZv2kW0UteRIf9jpOi33Uson6KCv6knmXU1XZIzZN5KFavpmU0S1zKMmpZ+jJqHSdmvG+gt1eaEJa5PdBb5jf79QZ6lajy77JE0XgdekBMHaI4F2Z6vPuV+0fLSUDieYPgF4LgVxb5RVEU8/l7FADv9E4XYrLsM/KDdvNf3Argtc4CeN2yQ2ttB94yfwmofxx49cD+vga7K12DnjTcTcPJW+xTtCDBWrD/hIMXzHV2u0UvM8SDeU5I2QIFubwXxAjY923QdZQsGT9Vs5XPQ9FbLK9SXXimbYg5ZgTpDkYbRODxzUWtJGXRHIWyyo6ggSonbRL66czkdEN1J81JGBSYQh2qtvQVVKHC6dGeXFWvlPnFh2d1QXsnzwSq43UKJG1LECjwvc5JgtM6Mhm+AjiJzAnynmeMLkNfcwcdRzl6m5ubXDd87FGGOBS3kznxnkMcy7aTEBBaCajMmxvMrXy55hT4pgFFSVlyPomjAK0VO1+Z4OY/ZBEBKCF50KDsHgrj4dOYzP6wbw5zumEUPSxF10b+/5ex1rQP9ssbpTs/pftA9fnRmEwD8Rc3264Z4mH6gQ8IVtgDCBkzftNyB1lI0B0JggwM8uRusUHeE6Cnch8LsY+kxHP2ruaA1GD/O5ZTNAMd3f5XPnnBAbBrcABUHUc+XWNVWe39uq32nb0efWN9S0QCp4TbeDmBBZ1M8KebJizRhCWuLixhqn3XU4Ql9ONvpz+RsEzmlAEf9xOa12Bqle3P336D7D8wI1PQplTJ1EcOhmCYhenHOYZz7D03W3sXjsDN+zGH24X9IgBXHbo+0vsxtqlp2HYrsNadvN1MyooD2x/3BRd7u9m8RyB9I7K/ChI7153Qyi/p1G7aHxSQz7ymI+1sOvrO5r5L6VvWgPbiy3/Hv4lS0KgXENSD7gjvtlLyMUnR9R3Ptgy0C+L76awF6CPf0STDz+JqO8qeqSFd9vUrWbiVHeTNTzGhSW+iIixjHeWjymFty+Shb6cpFjqdxvhHXzuz9WNN+0LpRR2ae3dvzjwKFFRspmXvEmanaEqeyBvvFuovRLjGe1WJHtbxmqJd9ZGBJoLbRHD/tRHcKufv3GO0ndKby9XnsnsV4RCrhnCIfcBGfqP6jeqfneqrWTsVn7V8d2UzhBjUpdo0HoO6L6NWahnD/1/ojOQRRTyr+PzzBRrNZdnx04e1wMwB5w0bmGlg5jpg5udvv4zftlsuC2XszvsoU7XjXAvKVH1kpkGZBmUalGmVdh0fwxd64UjT1ZBG30U2rWNBzQHbyA3UNFBzHVDzDU/GlO8htPh5K37Y6kIxpnyALcOOPMZ06sEYSG5+F4YI925+oYh1/w8=&lt;/diagram&gt;&lt;/mxfile&gt;"><defs/><g><g><path d="M 70 30.88 L 254.63 30.14" fill="none" stroke="#000000" stroke-miterlimit="10" pointer-events="stroke" style="stroke: light-dark(rgb(0, 0, 0), rgb(255, 255, 255));"/><path d="M 259.88 30.12 L 252.9 33.65 L 254.63 30.14 L 252.87 26.65 Z" fill="#000000" stroke="#000000" stroke-miterlimit="10" pointer-events="all" style="fill: light-dark(rgb(0, 0, 0), rgb(255, 255, 255)); stroke: light-dark(rgb(0, 0, 0), rgb(255, 255, 255));"/></g><g><path d="M 10 1 L 70 1 L 70 61 L 10 61 Z" fill="#8c4fff" stroke="none" pointer-events="all" style="fill: light-dark(rgb(140, 79, 255), rgb(177, 125, 255));"/><path d="M 52.96 41.39 C 52.96 39.97 51.81 38.82 50.39 38.82 C 48.97 38.82 47.82 39.97 47.82 41.39 C 47.82 42.81 48.97 43.96 50.39 43.96 C 51.81 43.96 52.96 42.81 52.96 41.39 Z M 54.68 41.39 C 54.68 43.75 52.75 45.68 50.39 45.68 C 48.03 45.68 46.1 43.75 46.1 41.39 C 46.1 39.03 48.03 37.11 50.39 37.11 C 52.75 37.11 54.68 39.03 54.68 41.39 Z M 31.76 29.02 C 31.76 27.6 30.61 26.45 29.19 26.45 C 27.77 26.45 26.62 27.6 26.62 29.02 C 26.62 30.44 27.77 31.59 29.19 31.59 C 30.61 31.59 31.76 30.44 31.76 29.02 Z M 33.48 29.02 C 33.48 31.38 31.56 33.31 29.19 33.31 C 26.83 33.31 24.91 31.38 24.91 29.02 C 24.91 26.66 26.83 24.74 29.19 24.74 C 31.56 24.74 33.48 26.66 33.48 29.02 Z M 39.77 15.58 C 39.77 17 40.92 18.15 42.34 18.15 C 43.76 18.15 44.91 17 44.91 15.58 C 44.91 14.16 43.76 13.01 42.34 13.01 C 40.92 13.01 39.77 14.16 39.77 15.58 Z M 38.05 15.58 C 38.05 13.21 39.98 11.29 42.34 11.29 C 44.7 11.29 46.63 13.21 46.63 15.58 C 46.63 17.94 44.7 19.86 42.34 19.86 C 39.98 19.86 38.05 17.94 38.05 15.58 Z M 62.29 31 C 62.29 23.05 58.02 15.7 51.15 11.72 C 49.92 11.97 48.73 12.31 47.24 12.85 L 46.66 11.24 C 47.44 10.96 48.13 10.73 48.8 10.54 C 46.04 9.35 43.04 8.71 40 8.71 C 38.55 8.71 37.13 8.86 35.74 9.14 C 36.74 9.73 37.64 10.31 38.51 10.97 L 37.47 12.34 C 36.25 11.41 34.98 10.62 33.31 9.75 C 24.9 12.4 18.83 19.82 17.87 28.54 C 19.64 28.18 21.33 27.99 23.21 27.94 L 23.25 29.65 C 21.28 29.7 19.59 29.91 17.74 30.32 C 17.73 30.55 17.71 30.78 17.71 31 C 17.71 38.42 21.39 45.26 27.42 49.38 C 26.35 46.19 25.81 43.16 25.81 40.21 C 25.81 38.53 26.1 37.14 26.41 35.68 C 26.48 35.34 26.55 35 26.62 34.64 L 28.31 34.97 C 28.23 35.34 28.16 35.69 28.09 36.03 C 27.79 37.47 27.53 38.7 27.53 40.21 C 27.53 43.56 28.26 47.02 29.76 50.79 C 32.95 52.44 36.39 53.29 40 53.29 C 42.36 53.29 44.67 52.91 46.87 52.18 C 47.73 50.48 48.37 48.87 48.91 47.03 L 50.55 47.51 C 50.16 48.85 49.71 50.07 49.18 51.29 C 50.56 50.67 51.87 49.9 53.1 49 C 52.8 48.28 52.49 47.56 52.14 46.86 L 53.67 46.09 C 53.97 46.69 54.24 47.3 54.5 47.91 C 59.46 43.66 62.29 37.57 62.29 31 Z M 64 31 C 64 38.48 60.6 45.4 54.68 49.98 C 53.21 51.12 51.62 52.07 49.93 52.83 C 49.22 53.16 48.49 53.46 47.75 53.71 C 45.28 54.57 42.67 55 40 55 C 36.06 55 32.14 54.02 28.68 52.16 C 20.86 47.98 16 39.87 16 31 C 16 30.41 16.02 29.96 16.05 29.55 C 16.63 19.54 23.51 10.87 33.14 8 C 35.34 7.34 37.65 7 40 7 C 44.12 7 48.18 8.06 51.73 10.07 C 59.3 14.31 64 22.33 64 31 Z M 37.7 18.54 L 36.57 17.25 C 34.65 18.92 33.15 20.7 31.41 23.39 L 32.85 24.33 C 34.5 21.78 35.91 20.1 37.7 18.54 Z M 35.09 29.65 L 34.54 31.27 C 38.47 32.62 41.91 34.78 45.34 38.06 L 46.53 36.82 C 42.9 33.36 39.27 31.09 35.09 29.65 Z M 46.55 19.57 C 49.77 24.48 51.58 29.86 51.94 35.58 L 50.22 35.68 C 49.89 30.27 48.17 25.16 45.12 20.51 Z" fill="#ffffff" stroke="none" pointer-events="all" style="fill: light-dark(rgb(255, 255, 255), rgb(18, 18, 18));"/></g><g><g transform="translate(-0.5 -0.5)scale(0.9999999999999999)"><switch><foreignObject style="overflow: visible; text-align: left;" pointer-events="none" width="101%" height="101%" requiredFeatures="http://www.w3.org/TR/SVG11/feature#Extensibility"><div xmlns="http://www.w3.org/1999/xhtml" style="display: flex; align-items: unsafe flex-start; justify-content: unsafe center; width: 1px; height: 1px; padding-top: 68px; margin-left: 40px;"><div style="box-sizing: border-box; font-size: 0; text-align: center; color: #232F3E; "><div style="display: inline-block; font-size: 11px; font-family: &quot;Helvetica&quot;; color: light-dark(#232F3E, #bdc7d4); line-height: 1.2; pointer-events: all; white-space: nowrap; ">CloudFront + S3</div></div></div></foreignObject><text x="40" y="79" fill="#232F3E" font-family="&quot;Helvetica&quot;" font-size="11px" text-anchor="middle">CloudFront...</text></switch></g></g><g><path d="M 261 0 L 321 0 L 321 60 L 261 60 Z" fill="#dd344c" stroke="none" pointer-events="all" style="fill: light-dark(rgb(221, 52, 76), rgb(255, 127, 147));"/><path d="M 271.24 26.42 L 282.26 26.42 L 282.26 24.73 L 271.24 24.73 Z M 309.18 38.74 L 310.38 39.94 L 304.08 46.23 C 303.91 46.39 303.7 46.47 303.48 46.47 C 303.26 46.47 303.05 46.39 302.88 46.23 L 299.71 43.06 L 300.91 41.87 L 303.48 44.43 Z M 313.08 43.41 C 312.89 45 312.24 46.48 311.2 47.69 C 310.47 48.55 309.54 49.26 308.52 49.75 C 307.15 50.4 305.63 50.64 304.11 50.46 C 302.64 50.28 301.25 49.7 300.09 48.78 C 297.87 47.01 296.75 44.28 297.09 41.45 C 297.41 38.79 299.03 36.46 301.41 35.23 C 302.55 34.65 303.8 34.34 305.07 34.34 C 305.4 34.34 305.73 34.36 306.06 34.4 C 308.72 34.73 311.04 36.35 312.26 38.75 C 312.99 40.19 313.28 41.8 313.08 43.41 Z M 313.77 37.98 C 312.29 35.08 309.48 33.11 306.26 32.72 C 304.31 32.48 302.37 32.83 300.63 33.73 C 297.75 35.22 295.8 38.03 295.4 41.25 C 294.99 44.66 296.35 47.97 299.04 50.1 C 300.44 51.22 302.12 51.92 303.91 52.14 C 304.3 52.19 304.7 52.21 305.09 52.21 C 306.53 52.21 307.94 51.89 309.25 51.28 C 310.48 50.69 311.61 49.83 312.49 48.79 C 313.75 47.32 314.53 45.53 314.77 43.61 C 315 41.67 314.66 39.72 313.77 37.98 Z M 279.72 31.5 L 283.11 31.5 L 283.11 29.81 L 279.72 29.81 Z M 271.24 31.5 L 278.02 31.5 L 278.02 29.81 L 271.24 29.81 Z M 270.51 9.48 L 308.44 9.48 C 309.44 9.48 310.25 10.47 310.25 11.69 L 310.25 17.95 L 307.7 17.95 L 307.7 13.72 C 307.7 13.25 307.32 12.87 306.86 12.87 L 287.35 12.87 C 286.88 12.87 286.5 13.25 286.5 13.72 L 286.5 17.95 L 268.7 17.95 L 268.7 11.69 C 268.7 10.49 269.53 9.48 270.51 9.48 Z M 297.12 17.71 C 299.09 17.71 300.69 19.29 300.69 21.23 C 300.69 22.52 299.98 23.7 298.84 24.32 C 297.76 24.9 296.45 24.9 295.39 24.32 C 294.25 23.7 293.55 22.52 293.55 21.23 C 293.55 19.29 295.15 17.71 297.12 17.71 Z M 268.7 36.07 L 268.7 19.65 L 286.5 19.65 L 286.5 34.04 C 286.5 34.51 286.88 34.89 287.35 34.89 L 296.22 34.89 L 296.22 33.19 L 289.13 33.19 C 289.21 29.8 291.46 26.88 294.71 25.94 C 296.21 26.64 298 26.65 299.52 25.94 C 301.36 26.47 302.98 27.71 303.98 29.36 L 305.43 28.49 C 304.41 26.79 302.85 25.47 301.04 24.7 C 301.89 23.76 302.38 22.54 302.38 21.23 C 302.38 18.36 300.02 16.01 297.12 16.01 C 294.21 16.01 291.85 18.36 291.85 21.23 C 291.85 22.53 292.34 23.75 293.19 24.69 C 290.92 25.64 289.15 27.43 288.2 29.64 L 288.2 14.56 L 306.01 14.56 L 306.01 28.11 L 307.7 28.11 L 307.7 19.65 L 310.25 19.65 L 310.25 32.35 L 311.95 32.35 L 311.94 11.69 C 311.94 9.54 310.37 7.79 308.44 7.79 L 270.51 7.79 C 268.57 7.79 267 9.54 267 11.69 L 267 36.07 C 267 38.22 268.57 39.97 270.51 39.97 L 293.29 39.97 L 293.29 38.27 L 270.51 38.27 C 269.53 38.27 268.7 37.27 268.7 36.07 Z" fill="#ffffff" stroke="none" pointer-events="all" style="fill: light-dark(rgb(255, 255, 255), rgb(18, 18, 18));"/></g><g><g transform="translate(-0.5 -0.5)scale(0.9999999999999999)"><switch><foreignObject style="overflow: visible; text-align: left;" pointer-events="none" width="101%" height="101%" requiredFeatures="http://www.w3.org/TR/SVG11/feature#Extensibility"><div xmlns="http://www.w3.org/1999/xhtml" style="display: flex; align-items: unsafe flex-start; justify-content: unsafe center; width: 1px; height: 1px; padding-top: 67px; margin-left: 291px;"><div style="box-sizing: border-box; font-size: 0; text-align: center; color: #232F3E; "><div style="display: inline-block; font-size: 11px; font-family: &quot;Helvetica&quot;; color: light-dark(#232F3E, #bdc7d4); line-height: 1.2; pointer-events: all; white-space: nowrap; ">Cognito<br />User Pool</div></div></div></foreignObject><text x="291" y="78" fill="#232F3E" font-family="&quot;Helvetica&quot;" font-size="11px" text-anchor="middle">Cognito...</text></switch></g></g><g><path d="M 160 271 L 253.63 271" fill="none" stroke="#000000" stroke-miterlimit="10" pointer-events="stroke" style="stroke: light-dark(rgb(0, 0, 0), rgb(255, 255, 255));"/><path d="M 258.88 271 L 251.88 274.5 L 253.63 271 L 251.88 267.5 Z" fill="#000000" stroke="#000000" stroke-miterlimit="10" pointer-events="all" style="fill: light-dark(rgb(0, 0, 0), rgb(255, 255, 255)); stroke: light-dark(rgb(0, 0, 0), rgb(255, 255, 255));"/></g><g><path d="M 100 241 L 160 241 L 160 301 L 100 301 Z" fill="#e7157b" stroke="none" pointer-events="all" style="fill: light-dark(rgb(231, 21, 123), rgb(255, 129, 217));"/><path d="M 124.92 284.41 L 127.43 284.41 L 127.43 282.68 L 124.92 282.68 Z M 129.14 284.41 L 131.71 284.41 L 131.71 282.68 L 129.14 282.68 Z M 118.87 249.3 L 107.73 254.82 L 107.73 289.17 L 118.87 292.94 Z M 120.58 260.23 L 120.58 282.68 L 123.15 282.68 L 123.15 284.41 L 120.58 284.41 L 120.58 294.14 C 120.58 294.41 120.45 294.68 120.22 294.84 C 120.08 294.95 119.9 295 119.72 295 C 119.63 295 119.54 294.99 119.45 294.96 L 106.61 290.61 C 106.26 290.49 106.02 290.16 106.02 289.79 L 106.02 254.28 C 106.02 253.95 106.21 253.65 106.5 253.51 L 119.35 247.13 C 119.61 247 119.92 247.02 120.18 247.17 C 120.43 247.33 120.58 247.61 120.58 247.91 L 120.58 258.5 L 123.15 258.5 L 123.15 260.23 Z M 133.43 284.41 L 135.99 284.41 L 135.99 282.68 L 133.43 282.68 Z M 133.48 260.23 L 135.99 260.23 L 135.99 258.5 L 133.48 258.5 Z M 129.2 260.23 L 131.71 260.23 L 131.71 258.5 L 129.2 258.5 Z M 124.92 260.23 L 127.43 260.23 L 127.43 258.5 L 124.92 258.5 Z M 152.27 254.82 L 141.13 249.3 L 141.13 292.94 L 152.27 289.17 Z M 153.98 289.79 C 153.98 290.16 153.74 290.49 153.39 290.61 L 140.55 294.96 C 140.46 294.99 140.37 295 140.28 295 C 140.1 295 139.92 294.95 139.78 294.84 C 139.55 294.68 139.42 294.41 139.42 294.14 L 139.42 284.41 L 137.76 284.41 L 137.76 282.68 L 139.42 282.68 L 139.42 260.23 L 137.76 260.23 L 137.76 258.5 L 139.42 258.5 L 139.42 247.91 C 139.42 247.61 139.57 247.33 139.82 247.17 C 140.08 247.02 140.39 247 140.65 247.13 L 153.5 253.51 C 153.79 253.65 153.98 253.95 153.98 254.28 Z M 132.51 265.72 L 130.91 265.1 L 126.63 276.33 L 128.23 276.95 Z M 138.31 271.2 C 138.65 270.86 138.65 270.32 138.31 269.98 L 134.89 266.52 L 133.68 267.75 L 136.5 270.59 L 133.68 273.43 L 134.89 274.66 Z M 125.11 274.66 L 121.69 271.2 C 121.35 270.86 121.35 270.32 121.69 269.98 L 125.11 266.52 L 126.32 267.75 L 123.5 270.59 L 126.32 273.43 Z" fill="#ffffff" stroke="none" pointer-events="all" style="fill: light-dark(rgb(255, 255, 255), rgb(18, 18, 18));"/></g><g><g transform="translate(-0.5 -0.5)scale(0.9999999999999999)"><switch><foreignObject style="overflow: visible; text-align: left;" pointer-events="none" width="101%" height="101%" requiredFeatures="http://www.w3.org/TR/SVG11/feature#Extensibility"><div xmlns="http://www.w3.org/1999/xhtml" style="display: flex; align-items: unsafe flex-start; justify-content: unsafe center; width: 1px; height: 1px; padding-top: 308px; margin-left: 130px;"><div style="box-sizing: border-box; font-size: 0; text-align: center; color: #232F3E; "><div style="display: inline-block; font-size: 11px; font-family: &quot;Helvetica&quot;; color: light-dark(#232F3E, #bdc7d4); line-height: 1.2; pointer-events: all; white-space: nowrap; ">API Gateway</div></div></div></foreignObject><text x="130" y="319" fill="#232F3E" font-family="&quot;Helvetica&quot;" font-size="11px" text-anchor="middle">API Gateway</text></switch></g></g><g><path d="M 321 271 L 350.47 271.04 Q 360.47 271.05 360.47 281.05 L 360.47 380.53 Q 360.47 390.53 370.47 390.52 L 393.63 390.5" fill="none" stroke="#000000" stroke-miterlimit="10" pointer-events="stroke" style="stroke: light-dark(rgb(0, 0, 0), rgb(255, 255, 255));"/><path d="M 398.88 390.5 L 391.88 394.01 L 393.63 390.5 L 391.88 387.01 Z" fill="#000000" stroke="#000000" stroke-miterlimit="10" pointer-events="all" style="fill: light-dark(rgb(0, 0, 0), rgb(255, 255, 255)); stroke: light-dark(rgb(0, 0, 0), rgb(255, 255, 255));"/></g><g><path d="M 260 240.5 L 321 240.5 L 321 301.5 L 260 301.5 Z" fill="#ed7100" stroke="none" pointer-events="all" style="fill: light-dark(rgb(237, 113, 0), rgb(216, 109, 12));"/><path d="M 280.07 293.66 L 269.25 293.66 L 281.22 268.64 L 286.64 279.81 Z M 282 266.25 C 281.85 265.95 281.55 265.76 281.21 265.76 L 281.21 265.76 C 280.87 265.76 280.57 265.96 280.42 266.26 L 267.08 294.15 C 266.95 294.42 266.97 294.74 267.13 294.99 C 267.29 295.25 267.57 295.4 267.87 295.4 L 280.62 295.4 C 280.96 295.4 281.27 295.21 281.41 294.9 L 288.4 280.17 C 288.51 279.94 288.51 279.66 288.39 279.42 Z M 312.3 293.66 L 301.55 293.66 L 284.31 257.55 C 284.16 257.25 283.85 257.06 283.52 257.06 L 276.48 257.06 L 276.49 248.34 L 290.28 248.34 L 307.45 284.45 C 307.59 284.75 307.9 284.94 308.23 284.94 L 312.3 284.94 Z M 313.18 283.2 L 308.79 283.2 L 291.62 247.1 C 291.48 246.79 291.17 246.6 290.83 246.6 L 275.62 246.6 C 275.14 246.6 274.75 246.99 274.75 247.47 L 274.74 257.93 C 274.74 258.16 274.83 258.38 274.99 258.54 C 275.16 258.71 275.38 258.8 275.61 258.8 L 282.97 258.8 L 300.21 294.9 C 300.36 295.21 300.67 295.4 301 295.4 L 313.18 295.4 C 313.66 295.4 314.05 295.01 314.05 294.53 L 314.05 284.07 C 314.05 283.59 313.66 283.2 313.18 283.2 Z" fill="#ffffff" stroke="none" pointer-events="all" style="fill: light-dark(rgb(255, 255, 255), rgb(18, 18, 18));"/></g><g><g transform="translate(-0.5 -0.5)scale(0.9999999999999999)"><switch><foreignObject style="overflow: visible; text-align: left;" pointer-events="none" width="101%" height="101%" requiredFeatures="http://www.w3.org/TR/SVG11/feature#Extensibility"><div xmlns="http://www.w3.org/1999/xhtml" style="display: flex; align-items: unsafe flex-start; justify-content: unsafe center; width: 1px; height: 1px; padding-top: 309px; margin-left: 291px;"><div style="box-sizing: border-box; font-size: 0; text-align: center; color: #232F3E; "><div style="display: inline-block; font-size: 12px; font-family: &quot;Helvetica&quot;; color: light-dark(#232F3E, #bdc7d4); line-height: 1.2; pointer-events: all; white-space: nowrap; "><span style="color: light-dark(rgb(35, 47, 62), rgb(189, 199, 212)); font-size: 11px;">Lambda</span><br style="color: light-dark(rgb(63, 63, 63), rgb(183, 183, 183)); scrollbar-color: rgb(226, 226, 226) rgb(251, 251, 251); font-size: 11px;" /><span style="color: light-dark(rgb(35, 47, 62), rgb(189, 199, 212)); font-size: 11px;">API Lambda</span></div></div></div></foreignObject><text x="291" y="321" fill="#232F3E" font-family="&quot;Helvetica&quot;" font-size="12px" text-anchor="middle">Lambda...</text></switch></g></g><g><path d="M 470 390.5 L 490.05 390.52 Q 500.05 390.53 500.05 380.53 L 500.05 281.47 Q 500.05 271.47 510.05 271.48 L 533.63 271.5" fill="none" stroke="#000000" stroke-miterlimit="10" pointer-events="stroke" style="stroke: light-dark(rgb(0, 0, 0), rgb(255, 255, 255));"/><path d="M 538.88 271.5 L 531.88 274.99 L 533.63 271.5 L 531.88 267.99 Z" fill="#000000" stroke="#000000" stroke-miterlimit="10" pointer-events="all" style="fill: light-dark(rgb(0, 0, 0), rgb(255, 255, 255)); stroke: light-dark(rgb(0, 0, 0), rgb(255, 255, 255));"/></g><g><path d="M 400 360.5 L 460 360.5 L 460 420.5 L 400 420.5 Z" fill="#e7157b" stroke="none" pointer-events="all" style="fill: light-dark(rgb(231, 21, 123), rgb(255, 129, 217));"/><path d="M 420.51 393.6 L 423.03 391.11 C 423.19 390.95 423.28 390.74 423.28 390.52 C 423.28 390.29 423.2 390.08 423.04 389.92 L 420.51 387.4 L 419.32 388.58 L 420.4 389.66 L 416.55 389.66 L 416.55 391.34 L 420.42 391.34 L 419.32 392.42 Z M 439.78 393.68 L 443.15 391.17 C 443.36 391.01 443.48 390.76 443.48 390.5 C 443.48 390.24 443.36 389.99 443.14 389.83 L 439.78 387.32 L 438.77 388.66 L 440.11 389.66 L 436.75 389.66 L 436.75 391.34 L 440.11 391.34 L 438.77 392.34 Z M 425.97 390.5 C 425.97 392.28 425.66 393.95 425.09 395.41 C 426.6 394.82 428.31 394.53 430.02 394.53 C 431.72 394.53 433.43 394.82 434.94 395.41 C 434.37 393.95 434.06 392.28 434.06 390.5 C 434.06 388.72 434.37 387.05 434.94 385.59 C 431.92 386.76 428.12 386.76 425.09 385.59 C 425.66 387.05 425.97 388.72 425.97 390.5 Z M 421.85 398.62 C 421.68 398.45 421.6 398.24 421.6 398.03 C 421.6 397.81 421.68 397.6 421.85 397.43 C 423.37 395.92 424.29 393.32 424.29 390.5 C 424.29 387.68 423.37 385.08 421.85 383.57 C 421.68 383.4 421.6 383.19 421.6 382.97 C 421.6 382.76 421.68 382.55 421.85 382.38 C 422.18 382.06 422.71 382.06 423.04 382.38 C 426.3 385.62 433.73 385.62 437 382.38 C 437.32 382.06 437.86 382.06 438.19 382.38 C 438.35 382.55 438.43 382.76 438.43 382.97 C 438.43 383.19 438.35 383.4 438.19 383.57 C 436.66 385.08 435.75 387.68 435.75 390.5 C 435.75 393.32 436.66 395.92 438.19 397.43 C 438.35 397.6 438.43 397.81 438.43 398.03 C 438.43 398.24 438.35 398.45 438.19 398.62 C 438.02 398.78 437.81 398.86 437.59 398.86 C 437.37 398.86 437.16 398.78 437 398.62 C 433.73 395.38 426.3 395.38 423.04 398.62 C 422.71 398.94 422.18 398.94 421.85 398.62 Z M 451.87 390.5 C 451.87 389.72 451.56 388.99 451.01 388.44 C 450.44 387.87 449.68 387.59 448.93 387.59 C 448.18 387.59 447.43 387.87 446.86 388.44 C 445.71 389.58 445.71 391.43 446.86 392.57 C 448 393.7 449.86 393.71 451.01 392.57 C 451.56 392.02 451.87 391.28 451.87 390.5 Z M 452.2 393.75 C 451.3 394.64 450.12 395.09 448.93 395.09 C 447.75 395.09 446.57 394.64 445.67 393.75 C 443.86 391.96 443.86 389.05 445.67 387.26 C 447.47 385.47 450.4 385.47 452.2 387.26 C 454 389.05 454 391.96 452.2 393.75 Z M 414 390.52 C 414 389.74 413.7 389.01 413.14 388.46 C 412.59 387.91 411.85 387.61 411.07 387.61 C 410.28 387.61 409.55 387.91 408.99 388.46 C 408.44 389.01 408.13 389.74 408.13 390.52 C 408.13 391.3 408.44 392.03 408.99 392.59 C 410.1 393.69 412.03 393.69 413.14 392.59 C 413.7 392.03 414 391.3 414 390.52 Z M 414.33 393.77 C 413.43 394.66 412.25 395.11 411.07 395.11 C 409.88 395.11 408.7 394.66 407.8 393.77 C 406 391.98 406 389.07 407.8 387.28 C 409.6 385.49 412.53 385.49 414.33 387.28 C 416.13 389.07 416.13 391.98 414.33 393.77 Z M 442.53 402.99 C 439.17 406.33 434.7 408.17 429.95 408.17 C 425.2 408.17 420.73 406.33 417.37 402.99 C 415.06 400.71 413.8 397.97 413.14 396.08 L 411.55 396.63 C 412.26 398.68 413.65 401.66 416.18 404.18 C 419.86 407.83 424.75 409.84 429.95 409.84 C 435.15 409.84 440.04 407.83 443.72 404.18 C 445.84 402.07 447.54 399.38 448.49 396.62 L 446.89 396.08 C 446.03 398.61 444.47 401.06 442.53 402.99 Z M 413.14 384.92 L 411.55 384.37 C 412.57 381.46 414.21 378.78 416.18 376.82 C 419.86 373.17 424.75 371.16 429.95 371.16 C 435.15 371.16 440.04 373.17 443.71 376.82 C 445.79 378.88 447.53 381.63 448.48 384.37 L 446.89 384.92 C 446.02 382.41 444.42 379.89 442.52 378 C 439.17 374.66 434.7 372.83 429.95 372.83 C 425.2 372.83 420.73 374.66 417.37 378 C 415.58 379.78 414.07 382.24 413.14 384.92 Z" fill="#ffffff" stroke="none" pointer-events="all" style="fill: light-dark(rgb(255, 255, 255), rgb(18, 18, 18));"/></g><g><g transform="translate(-0.5 -0.5)scale(0.9999999999999999)"><switch><foreignObject style="overflow: visible; text-align: left;" pointer-events="none" width="101%" height="101%" requiredFeatures="http://www.w3.org/TR/SVG11/feature#Extensibility"><div xmlns="http://www.w3.org/1999/xhtml" style="display: flex; align-items: unsafe flex-start; justify-content: unsafe center; width: 1px; height: 1px; padding-top: 428px; margin-left: 430px;"><div style="box-sizing: border-box; font-size: 0; text-align: center; color: #232F3E; "><div style="display: inline-block; font-size: 11px; font-family: &quot;Helvetica&quot;; color: light-dark(#232F3E, #bdc7d4); line-height: 1.2; pointer-events: all; white-space: nowrap; ">SQS<br />Buffering</div></div></div></foreignObject><text x="430" y="439" fill="#232F3E" font-family="&quot;Helvetica&quot;" font-size="11px" text-anchor="middle">SQS...</text></switch></g></g><g><path d="M 540 441 L 600 441 L 600 501 L 540 501 Z" fill="#bf0816" stroke="none" pointer-events="all" style="fill: light-dark(rgb(191, 8, 22), rgb(255, 162, 174));"/><path d="M 560.51 474.1 L 563.03 471.61 C 563.19 471.45 563.28 471.24 563.28 471.02 C 563.28 470.79 563.2 470.58 563.04 470.42 L 560.51 467.9 L 559.32 469.08 L 560.4 470.16 L 556.55 470.16 L 556.55 471.84 L 560.42 471.84 L 559.32 472.92 Z M 579.78 474.18 L 583.15 471.67 C 583.36 471.51 583.48 471.26 583.48 471 C 583.48 470.74 583.36 470.49 583.14 470.33 L 579.78 467.82 L 578.77 469.16 L 580.11 470.16 L 576.75 470.16 L 576.75 471.84 L 580.11 471.84 L 578.77 472.84 Z M 565.97 471 C 565.97 472.78 565.66 474.45 565.09 475.91 C 566.6 475.32 568.31 475.03 570.02 475.03 C 571.72 475.03 573.43 475.32 574.94 475.91 C 574.37 474.45 574.06 472.78 574.06 471 C 574.06 469.22 574.37 467.55 574.94 466.09 C 571.92 467.26 568.12 467.26 565.09 466.09 C 565.66 467.55 565.97 469.22 565.97 471 Z M 561.85 479.12 C 561.68 478.95 561.6 478.74 561.6 478.53 C 561.6 478.31 561.68 478.1 561.85 477.93 C 563.37 476.42 564.29 473.82 564.29 471 C 564.29 468.18 563.37 465.58 561.85 464.07 C 561.68 463.9 561.6 463.69 561.6 463.47 C 561.6 463.26 561.68 463.05 561.85 462.88 C 562.18 462.56 562.71 462.56 563.04 462.88 C 566.3 466.12 573.73 466.12 577 462.88 C 577.32 462.56 577.86 462.56 578.19 462.88 C 578.35 463.05 578.43 463.26 578.43 463.47 C 578.43 463.69 578.35 463.9 578.19 464.07 C 576.66 465.58 575.75 468.18 575.75 471 C 575.75 473.82 576.66 476.42 578.19 477.93 C 578.35 478.1 578.43 478.31 578.43 478.53 C 578.43 478.74 578.35 478.95 578.19 479.12 C 578.02 479.28 577.81 479.36 577.59 479.36 C 577.37 479.36 577.16 479.28 577 479.12 C 573.73 475.88 566.3 475.88 563.04 479.12 C 562.71 479.44 562.18 479.44 561.85 479.12 Z M 591.87 471 C 591.87 470.22 591.56 469.49 591.01 468.94 C 590.44 468.37 589.68 468.09 588.93 468.09 C 588.18 468.09 587.43 468.37 586.86 468.94 C 585.71 470.08 585.71 471.93 586.86 473.07 C 588 474.2 589.86 474.21 591.01 473.07 C 591.56 472.52 591.87 471.78 591.87 471 Z M 592.2 474.25 C 591.3 475.14 590.12 475.59 588.93 475.59 C 587.75 475.59 586.57 475.14 585.67 474.25 C 583.86 472.46 583.86 469.55 585.67 467.76 C 587.47 465.97 590.4 465.97 592.2 467.76 C 594 469.55 594 472.46 592.2 474.25 Z M 554 471.02 C 554 470.24 553.7 469.51 553.14 468.96 C 552.59 468.41 551.85 468.11 551.07 468.11 C 550.28 468.11 549.55 468.41 548.99 468.96 C 548.44 469.51 548.13 470.24 548.13 471.02 C 548.13 471.8 548.44 472.53 548.99 473.09 C 550.1 474.19 552.03 474.19 553.14 473.09 C 553.7 472.53 554 471.8 554 471.02 Z M 554.33 474.27 C 553.43 475.16 552.25 475.61 551.07 475.61 C 549.88 475.61 548.7 475.16 547.8 474.27 C 546 472.48 546 469.57 547.8 467.78 C 549.6 465.99 552.53 465.99 554.33 467.78 C 556.13 469.57 556.13 472.48 554.33 474.27 Z M 582.53 483.49 C 579.17 486.83 574.7 488.67 569.95 488.67 C 565.2 488.67 560.73 486.83 557.37 483.49 C 555.06 481.21 553.8 478.47 553.14 476.58 L 551.55 477.13 C 552.26 479.18 553.65 482.16 556.18 484.68 C 559.86 488.33 564.75 490.34 569.95 490.34 C 575.15 490.34 580.04 488.33 583.72 484.68 C 585.84 482.57 587.54 479.88 588.49 477.12 L 586.89 476.58 C 586.03 479.11 584.47 481.56 582.53 483.49 Z M 553.14 465.42 L 551.55 464.87 C 552.57 461.96 554.21 459.28 556.18 457.32 C 559.86 453.67 564.75 451.66 569.95 451.66 C 575.15 451.66 580.04 453.67 583.71 457.32 C 585.79 459.38 587.53 462.13 588.48 464.87 L 586.89 465.42 C 586.02 462.91 584.42 460.39 582.52 458.5 C 579.17 455.16 574.7 453.33 569.95 453.33 C 565.2 453.33 560.73 455.16 557.37 458.5 C 555.58 460.28 554.07 462.74 553.14 465.42 Z" fill="#ffffff" stroke="none" pointer-events="all" style="fill: light-dark(rgb(255, 255, 255), rgb(18, 18, 18));"/></g><g><g transform="translate(-0.5 -0.5)scale(0.9999999999999999)"><switch><foreignObject style="overflow: visible; text-align: left;" pointer-events="none" width="101%" height="101%" requiredFeatures="http://www.w3.org/TR/SVG11/feature#Extensibility"><div xmlns="http://www.w3.org/1999/xhtml" style="display: flex; align-items: unsafe flex-start; justify-content: unsafe center; width: 1px; height: 1px; padding-top: 508px; margin-left: 570px;"><div style="box-sizing: border-box; font-size: 0; text-align: center; color: #232F3E; "><div style="display: inline-block; font-size: 11px; font-family: &quot;Helvetica&quot;; color: light-dark(#232F3E, #bdc7d4); line-height: 1.2; pointer-events: all; white-space: nowrap; ">SQS DLQ<br />Dead Letter Queue</div></div></div></foreignObject><text x="570" y="519" fill="#232F3E" font-family="&quot;Helvetica&quot;" font-size="11px" text-anchor="middle">SQS DLQ...</text></switch></g></g><g><path d="M 540 241 L 601 241 L 601 302 L 540 302 Z" fill="#ed7100" stroke="none" pointer-events="all" style="fill: light-dark(rgb(237, 113, 0), rgb(216, 109, 12));"/><path d="M 560.07 294.16 L 549.25 294.16 L 561.22 269.14 L 566.64 280.31 Z M 562 266.75 C 561.85 266.45 561.55 266.26 561.21 266.26 L 561.21 266.26 C 560.87 266.26 560.57 266.46 560.42 266.76 L 547.08 294.65 C 546.95 294.92 546.97 295.24 547.13 295.49 C 547.29 295.75 547.57 295.9 547.87 295.9 L 560.62 295.9 C 560.96 295.9 561.27 295.71 561.41 295.4 L 568.4 280.67 C 568.51 280.44 568.51 280.16 568.39 279.92 Z M 592.3 294.16 L 581.55 294.16 L 564.31 258.05 C 564.16 257.75 563.85 257.56 563.52 257.56 L 556.48 257.56 L 556.49 248.84 L 570.28 248.84 L 587.45 284.95 C 587.59 285.25 587.9 285.44 588.23 285.44 L 592.3 285.44 Z M 593.18 283.7 L 588.79 283.7 L 571.62 247.6 C 571.48 247.29 571.17 247.1 570.83 247.1 L 555.62 247.1 C 555.14 247.1 554.75 247.49 554.75 247.97 L 554.74 258.43 C 554.74 258.66 554.83 258.88 554.99 259.04 C 555.16 259.21 555.38 259.3 555.61 259.3 L 562.97 259.3 L 580.21 295.4 C 580.36 295.71 580.67 295.9 581 295.9 L 593.18 295.9 C 593.66 295.9 594.05 295.51 594.05 295.03 L 594.05 284.57 C 594.05 284.09 593.66 283.7 593.18 283.7 Z" fill="#ffffff" stroke="none" pointer-events="all" style="fill: light-dark(rgb(255, 255, 255), rgb(18, 18, 18));"/></g><g><g transform="translate(-0.5 -0.5)scale(0.9999999999999999)"><switch><foreignObject style="overflow: visible; text-align: left;" pointer-events="none" width="101%" height="101%" requiredFeatures="http://www.w3.org/TR/SVG11/feature#Extensibility"><div xmlns="http://www.w3.org/1999/xhtml" style="display: flex; align-items: unsafe flex-start; justify-content: unsafe center; width: 1px; height: 1px; padding-top: 309px; margin-left: 571px;"><div style="box-sizing: border-box; font-size: 0; text-align: center; color: #232F3E; "><div style="display: inline-block; font-size: 12px; font-family: &quot;Helvetica&quot;; color: light-dark(#232F3E, #bdc7d4); line-height: 1.2; pointer-events: all; white-space: nowrap; "><span style="color: light-dark(rgb(35, 47, 62), rgb(189, 199, 212)); font-size: 11px;">Lambda</span><br style="color: light-dark(rgb(63, 63, 63), rgb(183, 183, 183)); scrollbar-color: rgb(226, 226, 226) rgb(251, 251, 251); font-size: 11px;" /><span style="color: light-dark(rgb(35, 47, 62), rgb(189, 199, 212)); font-size: 11px;">Event Processor</span></div></div></div></foreignObject><text x="571" y="321" fill="#232F3E" font-family="&quot;Helvetica&quot;" font-size="12px" text-anchor="middle">Lambda...</text></switch></g></g><g><path d="M 460 390.5 L 490.05 390.52 Q 500.05 390.53 500.05 400.53 L 500.05 461.05 Q 500.05 471.05 510.05 471.04 L 533.63 471.01" fill="none" stroke="#000000" stroke-miterlimit="10" pointer-events="stroke" style="stroke: light-dark(rgb(0, 0, 0), rgb(255, 255, 255));"/><path d="M 538.88 471 L 531.89 474.51 L 533.63 471.01 L 531.88 467.51 Z" fill="#000000" stroke="#000000" stroke-miterlimit="10" pointer-events="all" style="fill: light-dark(rgb(0, 0, 0), rgb(255, 255, 255)); stroke: light-dark(rgb(0, 0, 0), rgb(255, 255, 255));"/></g><g><path d="M 700 242 L 760 242 L 760 302 L 700 302 Z" fill="#c925d1" stroke="none" pointer-events="all" style="fill: light-dark(rgb(201, 37, 209), rgb(255, 124, 255));"/><path d="M 740.33 284.73 C 737.47 287.04 731.46 288.26 725.72 288.26 C 719.97 288.26 713.97 287.04 711.11 284.73 L 711.11 289.39 L 711.11 289.39 C 711.11 291.71 717.11 294.3 725.72 294.3 C 734.32 294.3 740.32 291.71 740.33 289.39 Z M 740.33 275.88 L 742.04 275.87 L 742.04 275.88 C 742.04 276.91 741.52 277.88 740.51 278.76 C 741.74 279.84 742.04 280.9 742.04 281.65 C 742.04 281.65 742.04 281.66 742.04 281.66 L 742.04 289.39 L 742.04 289.39 C 742.04 293.68 733.63 296 725.72 296 C 717.83 296 709.44 293.69 709.4 289.42 C 709.4 289.41 709.4 289.41 709.4 289.4 L 709.4 281.65 C 709.4 281.65 709.4 281.64 709.4 281.64 C 709.4 280.89 709.7 279.84 710.93 278.76 C 709.71 277.69 709.4 276.64 709.4 275.89 L 709.4 275.89 C 709.4 275.89 709.4 275.89 709.4 275.89 L 709.4 268.13 C 709.4 268.13 709.4 268.12 709.4 268.12 C 709.4 267.37 709.71 266.32 710.93 265.24 C 709.71 264.17 709.4 263.12 709.4 262.38 L 709.4 262.38 C 709.4 262.37 709.4 262.37 709.4 262.37 L 709.4 254.61 C 709.4 254.61 709.4 254.61 709.4 254.6 C 709.41 250.31 717.81 248 725.72 248 C 730.19 248 734.48 248.71 737.49 249.95 L 736.84 251.52 C 734.02 250.36 729.97 249.7 725.72 249.7 C 717.11 249.7 711.11 252.29 711.11 254.61 C 711.11 256.94 717.11 259.53 725.72 259.53 C 725.95 259.53 726.18 259.53 726.41 259.52 L 726.48 261.22 C 726.23 261.23 725.97 261.23 725.72 261.23 C 719.97 261.23 713.97 260.01 711.11 257.69 L 711.11 262.35 L 711.11 262.35 L 711.11 262.37 C 711.12 263.26 712.03 264.04 712.8 264.53 C 715.11 266 719.24 267.01 723.84 267.22 L 723.77 268.91 C 719.1 268.7 715.01 267.73 712.38 266.25 C 711.73 266.73 711.11 267.39 711.11 268.13 C 711.11 270.46 717.11 273.05 725.72 273.05 C 726.56 273.05 727.4 273.02 728.21 272.96 L 728.33 274.66 C 727.48 274.72 726.6 274.75 725.72 274.75 C 719.97 274.75 713.97 273.52 711.11 271.21 L 711.11 275.87 L 711.11 275.87 C 711.12 276.78 712.03 277.56 712.8 278.05 C 715.44 279.73 720.39 280.78 725.72 280.78 L 726.1 280.78 L 726.1 282.48 L 725.72 282.48 C 720.3 282.48 715.38 281.48 712.37 279.78 C 711.73 280.26 711.11 280.91 711.11 281.65 C 711.11 283.97 717.11 286.56 725.72 286.56 C 734.32 286.56 740.32 283.98 740.33 281.66 L 740.33 281.65 L 740.33 281.65 C 740.32 280.91 739.71 280.26 739.06 279.77 C 738.64 280.01 738.19 280.24 737.68 280.45 L 737.03 278.88 C 737.65 278.62 738.19 278.34 738.63 278.05 C 739.41 277.55 740.33 276.76 740.33 275.88 Z M 747.67 263.44 L 742.87 263.44 C 742.58 263.44 742.32 263.3 742.16 263.07 C 742 262.84 741.96 262.54 742.07 262.28 L 744.99 254.98 L 733.93 254.98 L 728.78 265.18 L 734.25 265.18 C 734.53 265.18 734.78 265.31 734.95 265.53 C 735.11 265.75 735.15 266.03 735.07 266.29 L 730.19 281.5 Z M 750.3 263.18 L 728.87 285.32 C 728.71 285.49 728.48 285.58 728.25 285.58 C 728.1 285.58 727.95 285.54 727.82 285.46 C 727.47 285.26 727.32 284.85 727.44 284.47 L 733.08 266.88 L 727.4 266.88 C 727.1 266.88 726.82 266.73 726.67 266.47 C 726.51 266.22 726.5 265.91 726.63 265.65 L 732.63 253.75 C 732.77 253.46 733.07 253.27 733.4 253.27 L 746.25 253.27 C 746.54 253.27 746.8 253.42 746.96 253.65 C 747.12 253.88 747.16 254.18 747.05 254.44 L 744.13 261.74 L 749.68 261.74 C 750.02 261.74 750.34 261.95 750.47 262.26 C 750.6 262.57 750.54 262.94 750.3 263.18 Z M 712.36 289.72 C 713.57 290.41 715.1 290.98 716.9 291.43 L 717.32 289.78 C 715.69 289.38 714.27 288.84 713.2 288.24 Z M 716.9 277.83 L 717.32 276.18 C 715.69 275.77 714.27 275.24 713.2 274.64 L 712.36 276.12 C 713.57 276.8 715.1 277.38 716.9 277.83 Z M 712.36 262.52 L 713.2 261.04 C 714.27 261.64 715.69 262.17 717.32 262.58 L 716.9 264.22 C 715.1 263.77 713.57 263.2 712.36 262.52 Z" fill="#ffffff" stroke="none" pointer-events="all" style="fill: light-dark(rgb(255, 255, 255), rgb(18, 18, 18));"/></g><g><g transform="translate(-0.5 -0.5)scale(0.9999999999999999)"><switch><foreignObject style="overflow: visible; text-align: left;" pointer-events="none" width="101%" height="101%" requiredFeatures="http://www.w3.org/TR/SVG11/feature#Extensibility"><div xmlns="http://www.w3.org/1999/xhtml" style="display: flex; align-items: unsafe flex-start; justify-content: unsafe center; width: 1px; height: 1px; padding-top: 309px; margin-left: 730px;"><div style="box-sizing: border-box; font-size: 0; text-align: center; color: #232F3E; "><div style="display: inline-block; font-size: 12px; font-family: &quot;Helvetica&quot;; color: light-dark(#232F3E, #bdc7d4); line-height: 1.2; pointer-events: all; white-space: nowrap; "><span style="color: light-dark(rgb(35, 47, 62), rgb(189, 199, 212)); font-size: 11px;">DynamoDB</span><br style="color: light-dark(rgb(63, 63, 63), rgb(183, 183, 183)); scrollbar-color: rgb(226, 226, 226) rgb(251, 251, 251); font-size: 11px;" /><span style="color: light-dark(rgb(35, 47, 62), rgb(189, 199, 212)); font-size: 11px;">PK=tenantId#userId</span></div></div></div></foreignObject><text x="730" y="321" fill="#232F3E" font-family="&quot;Helvetica&quot;" font-size="12px" text-anchor="middle">DynamoDB...</text></switch></g></g><g><path d="M 760 151 L 790.05 151.04 Q 800.05 151.05 800.05 141.05 L 800.05 41.05 Q 800.05 31.05 790.05 31.05 L 766.42 31.05" fill="none" stroke="#000000" stroke-miterlimit="10" pointer-events="stroke" style="stroke: light-dark(rgb(0, 0, 0), rgb(255, 255, 255));"/><path d="M 761.17 31.05 L 768.17 27.55 L 766.42 31.05 L 768.17 34.55 Z" fill="#000000" stroke="#000000" stroke-miterlimit="10" pointer-events="all" style="fill: light-dark(rgb(0, 0, 0), rgb(255, 255, 255)); stroke: light-dark(rgb(0, 0, 0), rgb(255, 255, 255));"/></g><g><path d="M 700 121 L 760 121 L 760 181 L 700 181 Z" fill="#e7157b" stroke="none" pointer-events="all" style="fill: light-dark(rgb(231, 21, 123), rgb(255, 129, 217));"/><path d="M 753.57 141.3 L 748.68 140.06 C 753.54 148.53 752.76 159.62 746.56 166.74 C 742.31 171.6 736.02 174.2 729.69 174.2 C 726.01 174.2 722.31 173.32 719.01 171.49 L 719.85 169.93 C 728.14 174.52 739.06 172.64 745.23 165.56 C 750.98 158.98 751.66 148.69 747.1 140.85 L 745.83 145.99 L 744.12 145.56 L 745.88 138.44 C 746 137.96 746.48 137.66 746.95 137.79 L 754 139.57 Z M 712.9 162.28 L 714.17 157.14 L 715.88 157.57 L 714.12 164.69 C 714.02 165.1 713.66 165.37 713.26 165.37 C 713.19 165.37 713.12 165.36 713.05 165.34 L 706 163.56 L 706.43 161.83 L 711.31 163.07 C 706.49 154.74 707.28 144.43 713.52 137.28 C 720.33 129.48 731.88 127.48 741 132.53 L 740.15 134.09 C 731.75 129.44 721.11 131.28 714.84 138.46 C 709.09 145.05 708.39 154.6 712.9 162.28 Z M 722.35 155.29 C 723.48 155.29 724.39 156.21 724.39 157.35 C 724.39 158.49 723.48 159.42 722.35 159.42 C 721.22 159.42 720.31 158.49 720.31 157.35 C 720.31 156.21 721.22 155.29 722.35 155.29 Z M 728.99 147.4 C 729.31 147.49 729.65 147.56 730 147.56 C 730.33 147.56 730.65 147.5 730.95 147.42 L 734.24 154.52 C 733.68 155.03 733.28 155.7 733.1 156.46 L 726.04 156.46 C 725.87 155.71 725.47 155.05 724.93 154.54 Z M 730 141.65 C 731.13 141.65 732.04 142.57 732.04 143.71 C 732.04 144.85 731.13 145.78 730 145.78 C 728.87 145.78 727.96 144.85 727.96 143.71 C 727.96 142.57 728.87 141.65 730 141.65 Z M 738.83 157.35 C 738.83 158.49 737.91 159.42 736.79 159.42 C 735.66 159.42 734.74 158.49 734.74 157.35 C 734.74 156.21 735.66 155.29 736.79 155.29 C 737.91 155.29 738.83 156.21 738.83 157.35 Z M 722.35 161.2 C 724.14 161.2 725.64 159.93 726.04 158.24 L 733.1 158.24 C 733.5 159.93 734.99 161.2 736.79 161.2 C 738.88 161.2 740.59 159.47 740.59 157.35 C 740.59 155.23 738.88 153.51 736.79 153.51 C 736.44 153.51 736.11 153.57 735.79 153.66 L 732.51 146.58 C 733.3 145.88 733.81 144.86 733.81 143.71 C 733.81 141.59 732.1 139.87 730 139.87 C 727.9 139.87 726.2 141.59 726.2 143.71 C 726.2 144.84 726.68 145.84 727.45 146.54 L 723.39 153.67 C 723.06 153.57 722.71 153.51 722.35 153.51 C 720.25 153.51 718.55 155.23 718.55 157.35 C 718.55 159.47 720.25 161.2 722.35 161.2 Z" fill="#ffffff" stroke="none" pointer-events="all" style="fill: light-dark(rgb(255, 255, 255), rgb(18, 18, 18));"/></g><g><g transform="translate(-0.5 -0.5)scale(0.9999999999999999)"><switch><foreignObject style="overflow: visible; text-align: left;" pointer-events="none" width="101%" height="101%" requiredFeatures="http://www.w3.org/TR/SVG11/feature#Extensibility"><div xmlns="http://www.w3.org/1999/xhtml" style="display: flex; align-items: unsafe flex-start; justify-content: unsafe center; width: 1px; height: 1px; padding-top: 188px; margin-left: 730px;"><div style="box-sizing: border-box; font-size: 0; text-align: center; color: #232F3E; "><div style="display: inline-block; font-size: 11px; font-family: &quot;Helvetica&quot;; color: light-dark(#232F3E, #bdc7d4); line-height: 1.2; pointer-events: all; white-space: nowrap; ">AppSync Events<br />IAM Publish</div></div></div></foreignObject><text x="730" y="199" fill="#232F3E" font-family="&quot;Helvetica&quot;" font-size="11px" text-anchor="middle">AppSync Eve...</text></switch></g></g><g><path d="M 601 271.47 L 630.05 271.47 Q 640.05 271.47 640.05 261.47 L 640.05 161.05 Q 640.05 151.05 650.05 151.04 L 693.63 151.01" fill="none" stroke="#000000" stroke-miterlimit="10" pointer-events="stroke" style="stroke: light-dark(rgb(0, 0, 0), rgb(255, 255, 255));"/><path d="M 698.88 151 L 691.89 154.51 L 693.63 151.01 L 691.88 147.51 Z" fill="#000000" stroke="#000000" stroke-miterlimit="10" pointer-events="all" style="fill: light-dark(rgb(0, 0, 0), rgb(255, 255, 255)); stroke: light-dark(rgb(0, 0, 0), rgb(255, 255, 255));"/></g><g><rect x="475" y="191" width="190" height="40" fill="none" stroke="none" pointer-events="all"/></g><g><g transform="translate(-0.5 -0.5)scale(0.9999999999999999)"><switch><foreignObject style="overflow: visible; text-align: left;" pointer-events="none" width="101%" height="101%" requiredFeatures="http://www.w3.org/TR/SVG11/feature#Extensibility"><div xmlns="http://www.w3.org/1999/xhtml" style="display: flex; align-items: unsafe flex-start; justify-content: unsafe center; width: 188px; height: 1px; padding-top: 198px; margin-left: 476px;"><div style="box-sizing: border-box; font-size: 0; text-align: center; color: #000000; "><div style="display: inline-block; font-size: 12px; font-family: &quot;Helvetica&quot;; color: light-dark(#000000, #ffffff); line-height: 1.2; pointer-events: all; white-space: normal; word-wrap: normal; "><span style="color: light-dark(rgb(71, 85, 105), rgb(155, 167, 184)); font-family: Helvetica; font-size: 11px; font-style: normal; font-variant-ligatures: normal; font-variant-caps: normal; font-weight: 400; letter-spacing: normal; orphans: 2; text-indent: 0px; text-transform: none; widows: 2; word-spacing: 0px; -webkit-text-stroke-width: 0px; white-space: nowrap; background-color: light-dark(rgb(255, 255, 255), rgb(18, 18, 18)); text-decoration-thickness: initial; text-decoration-style: initial; text-decoration-color: initial; float: none; display: inline !important;">IAM (SigV4)</span><br style="forced-color-adjust: none; color: light-dark(rgb(63, 63, 63), rgb(183, 183, 183)); scrollbar-color: rgb(226, 226, 226) rgb(251, 251, 251); font-family: Helvetica; font-size: 11px; font-style: normal; font-variant-ligatures: normal; font-variant-caps: normal; font-weight: 400; letter-spacing: normal; orphans: 2; text-indent: 0px; text-transform: none; widows: 2; word-spacing: 0px; -webkit-text-stroke-width: 0px; white-space: nowrap; text-decoration-thickness: initial; text-decoration-style: initial; text-decoration-color: initial;" /><span style="color: light-dark(rgb(71, 85, 105), rgb(155, 167, 184)); font-family: Helvetica; font-size: 11px; font-style: normal; font-variant-ligatures: normal; font-variant-caps: normal; font-weight: 400; letter-spacing: normal; orphans: 2; text-indent: 0px; text-transform: none; widows: 2; word-spacing: 0px; -webkit-text-stroke-width: 0px; white-space: nowrap; background-color: light-dark(rgb(255, 255, 255), rgb(18, 18, 18)); text-decoration-thickness: initial; text-decoration-style: initial; text-decoration-color: initial; float: none; display: inline !important;">tickets/orders/{tenantId}/{userId}</span></div></div></div></foreignObject><text x="570" y="210" fill="light-dark(#000000, #ffffff)" font-family="&quot;Helvetica&quot;" font-size="12px" text-anchor="middle">IAM (SigV4)...</text></switch></g></g><g><path d="M 700 31.8 L 546.37 30.75" fill="none" stroke="#000000" stroke-miterlimit="10" pointer-events="stroke" style="stroke: light-dark(rgb(0, 0, 0), rgb(255, 255, 255));"/><path d="M 541.12 30.72 L 548.14 27.26 L 546.37 30.75 L 548.09 34.26 Z" fill="#000000" stroke="#000000" stroke-miterlimit="10" pointer-events="all" style="fill: light-dark(rgb(0, 0, 0), rgb(255, 255, 255)); stroke: light-dark(rgb(0, 0, 0), rgb(255, 255, 255));"/></g><g><path d="M 700 2 L 760 2 L 760 62 L 700 62 Z" fill="#e7157b" stroke="none" pointer-events="all" style="fill: light-dark(rgb(231, 21, 123), rgb(255, 129, 217));"/><path d="M 753.57 22.3 L 748.68 21.06 C 753.54 29.53 752.76 40.62 746.56 47.74 C 742.31 52.6 736.02 55.2 729.69 55.2 C 726.01 55.2 722.31 54.32 719.01 52.49 L 719.85 50.93 C 728.14 55.52 739.06 53.64 745.23 46.56 C 750.98 39.98 751.66 29.69 747.1 21.85 L 745.83 26.99 L 744.12 26.56 L 745.88 19.44 C 746 18.96 746.48 18.66 746.95 18.79 L 754 20.57 Z M 712.9 43.28 L 714.17 38.14 L 715.88 38.57 L 714.12 45.69 C 714.02 46.1 713.66 46.37 713.26 46.37 C 713.19 46.37 713.12 46.36 713.05 46.34 L 706 44.56 L 706.43 42.83 L 711.31 44.07 C 706.49 35.74 707.28 25.43 713.52 18.28 C 720.33 10.48 731.88 8.48 741 13.53 L 740.15 15.09 C 731.75 10.44 721.11 12.28 714.84 19.46 C 709.09 26.05 708.39 35.6 712.9 43.28 Z M 722.35 36.29 C 723.48 36.29 724.39 37.21 724.39 38.35 C 724.39 39.49 723.48 40.42 722.35 40.42 C 721.22 40.42 720.31 39.49 720.31 38.35 C 720.31 37.21 721.22 36.29 722.35 36.29 Z M 728.99 28.4 C 729.31 28.49 729.65 28.56 730 28.56 C 730.33 28.56 730.65 28.5 730.95 28.42 L 734.24 35.52 C 733.68 36.03 733.28 36.7 733.1 37.46 L 726.04 37.46 C 725.87 36.71 725.47 36.05 724.93 35.54 Z M 730 22.65 C 731.13 22.65 732.04 23.57 732.04 24.71 C 732.04 25.85 731.13 26.78 730 26.78 C 728.87 26.78 727.96 25.85 727.96 24.71 C 727.96 23.57 728.87 22.65 730 22.65 Z M 738.83 38.35 C 738.83 39.49 737.91 40.42 736.79 40.42 C 735.66 40.42 734.74 39.49 734.74 38.35 C 734.74 37.21 735.66 36.29 736.79 36.29 C 737.91 36.29 738.83 37.21 738.83 38.35 Z M 722.35 42.2 C 724.14 42.2 725.64 40.93 726.04 39.24 L 733.1 39.24 C 733.5 40.93 734.99 42.2 736.79 42.2 C 738.88 42.2 740.59 40.47 740.59 38.35 C 740.59 36.23 738.88 34.51 736.79 34.51 C 736.44 34.51 736.11 34.57 735.79 34.66 L 732.51 27.58 C 733.3 26.88 733.81 25.86 733.81 24.71 C 733.81 22.59 732.1 20.87 730 20.87 C 727.9 20.87 726.2 22.59 726.2 24.71 C 726.2 25.84 726.68 26.84 727.45 27.54 L 723.39 34.67 C 723.06 34.57 722.71 34.51 722.35 34.51 C 720.25 34.51 718.55 36.23 718.55 38.35 C 718.55 40.47 720.25 42.2 722.35 42.2 Z" fill="#ffffff" stroke="none" pointer-events="all" style="fill: light-dark(rgb(255, 255, 255), rgb(18, 18, 18));"/></g><g><g transform="translate(-0.5 -0.5)scale(0.9999999999999999)"><switch><foreignObject style="overflow: visible; text-align: left;" pointer-events="none" width="101%" height="101%" requiredFeatures="http://www.w3.org/TR/SVG11/feature#Extensibility"><div xmlns="http://www.w3.org/1999/xhtml" style="display: flex; align-items: unsafe flex-start; justify-content: unsafe center; width: 1px; height: 1px; padding-top: 69px; margin-left: 730px;"><div style="box-sizing: border-box; font-size: 0; text-align: center; color: #232F3E; "><div style="display: inline-block; font-size: 11px; font-family: &quot;Helvetica&quot;; color: light-dark(#232F3E, #bdc7d4); line-height: 1.2; pointer-events: all; white-space: nowrap; ">AppSync Events<br />events.subscribe()</div></div></div></foreignObject><text x="730" y="80" fill="#232F3E" font-family="&quot;Helvetica&quot;" font-size="11px" text-anchor="middle">AppSync Eve...</text></switch></g></g><g><path d="M 479 0 L 540 0 L 540 61 L 479 61 Z" fill="#ed7100" stroke="none" pointer-events="all" style="fill: light-dark(rgb(237, 113, 0), rgb(216, 109, 12));"/><path d="M 499.07 53.16 L 488.25 53.16 L 500.22 28.14 L 505.64 39.31 Z M 501 25.75 C 500.85 25.45 500.55 25.26 500.21 25.26 L 500.21 25.26 C 499.87 25.26 499.57 25.46 499.42 25.76 L 486.08 53.65 C 485.95 53.92 485.97 54.24 486.13 54.49 C 486.29 54.75 486.57 54.9 486.87 54.9 L 499.62 54.9 C 499.96 54.9 500.27 54.71 500.41 54.4 L 507.4 39.67 C 507.51 39.44 507.51 39.16 507.39 38.92 Z M 531.3 53.16 L 520.55 53.16 L 503.31 17.05 C 503.16 16.75 502.85 16.56 502.52 16.56 L 495.48 16.56 L 495.49 7.84 L 509.28 7.84 L 526.45 43.95 C 526.59 44.25 526.9 44.44 527.23 44.44 L 531.3 44.44 Z M 532.18 42.7 L 527.79 42.7 L 510.62 6.6 C 510.48 6.29 510.17 6.1 509.83 6.1 L 494.62 6.1 C 494.14 6.1 493.75 6.49 493.75 6.97 L 493.74 17.43 C 493.74 17.66 493.83 17.88 493.99 18.04 C 494.16 18.21 494.38 18.3 494.61 18.3 L 501.97 18.3 L 519.21 54.4 C 519.36 54.71 519.67 54.9 520 54.9 L 532.18 54.9 C 532.66 54.9 533.05 54.51 533.05 54.03 L 533.05 43.57 C 533.05 43.09 532.66 42.7 532.18 42.7 Z" fill="#ffffff" stroke="none" pointer-events="all" style="fill: light-dark(rgb(255, 255, 255), rgb(18, 18, 18));"/></g><g><g transform="translate(-0.5 -0.5)scale(0.9999999999999999)"><switch><foreignObject style="overflow: visible; text-align: left;" pointer-events="none" width="101%" height="101%" requiredFeatures="http://www.w3.org/TR/SVG11/feature#Extensibility"><div xmlns="http://www.w3.org/1999/xhtml" style="display: flex; align-items: unsafe flex-start; justify-content: unsafe center; width: 1px; height: 1px; padding-top: 68px; margin-left: 509px;"><div style="box-sizing: border-box; font-size: 0; text-align: center; color: #232F3E; "><div style="display: inline-block; font-size: 12px; font-family: &quot;Helvetica&quot;; color: light-dark(#232F3E, #bdc7d4); line-height: 1.2; pointer-events: all; white-space: nowrap; "><span style="color: light-dark(rgb(35, 47, 62), rgb(189, 199, 212)); font-size: 11px;">Authorizer Lambda</span><br style="color: light-dark(rgb(63, 63, 63), rgb(183, 183, 183)); scrollbar-color: rgb(226, 226, 226) rgb(251, 251, 251); font-size: 11px;" /><span style="color: light-dark(rgb(35, 47, 62), rgb(189, 199, 212)); font-size: 11px;">JWT Verification + Channel Check</span></div></div></div></foreignObject><text x="509" y="80" fill="#232F3E" font-family="&quot;Helvetica&quot;" font-size="12px" text-anchor="middle">Authorizer...</text></switch></g></g><g><path d="M 479 30.42 L 327.37 30.02" fill="none" stroke="#000000" stroke-miterlimit="10" pointer-events="stroke" style="stroke: light-dark(rgb(0, 0, 0), rgb(255, 255, 255));"/><path d="M 322.12 30 L 329.13 26.52 L 327.37 30.02 L 329.11 33.52 Z" fill="#000000" stroke="#000000" stroke-miterlimit="10" pointer-events="all" style="fill: light-dark(rgb(0, 0, 0), rgb(255, 255, 255)); stroke: light-dark(rgb(0, 0, 0), rgb(255, 255, 255));"/></g><g><path d="M 70 31 L 120.05 31.04 Q 130.05 31.05 130.05 41.05 L 130 234.63" fill="none" stroke="#000000" stroke-miterlimit="10" pointer-events="stroke" style="stroke: light-dark(rgb(0, 0, 0), rgb(255, 255, 255));"/><path d="M 130 239.88 L 126.5 232.88 L 130 234.63 L 133.5 232.88 Z" fill="#000000" stroke="#000000" stroke-miterlimit="10" pointer-events="all" style="fill: light-dark(rgb(0, 0, 0), rgb(255, 255, 255)); stroke: light-dark(rgb(0, 0, 0), rgb(255, 255, 255));"/></g><g><g transform="translate(-0.5 -0.5)scale(0.9999999999999999)"><switch><foreignObject style="overflow: visible; text-align: left;" pointer-events="none" width="101%" height="101%" requiredFeatures="http://www.w3.org/TR/SVG11/feature#Extensibility"><div xmlns="http://www.w3.org/1999/xhtml" style="display: flex; align-items: unsafe center; justify-content: unsafe center; width: 1px; height: 1px; padding-top: 137px; margin-left: 129px;"><div style="box-sizing: border-box; font-size: 0; text-align: center; color: #000000; background-color: #ffffff; "><div style="display: inline-block; font-size: 11px; font-family: &quot;Helvetica&quot;; color: light-dark(#000000, #ffffff); line-height: 1.2; pointer-events: all; background-color: light-dark(#ffffff, var(--ge-dark-color, #121212)); white-space: nowrap; "><span style="color: light-dark(rgb(63, 63, 63), rgb(183, 183, 183));">POST: /v1/tickets/orders</span></div></div></div></foreignObject><text x="129" y="140" fill="light-dark(#000000, #ffffff)" font-family="&quot;Helvetica&quot;" font-size="11px" text-anchor="middle">POST: /v1/tickets/orders</text></switch></g></g><g><path d="M 601 271.5 L 693.63 271.97" fill="none" stroke="#000000" stroke-miterlimit="10" pointer-events="stroke" style="stroke: light-dark(rgb(0, 0, 0), rgb(255, 255, 255));"/><path d="M 698.88 271.99 L 691.86 275.46 L 693.63 271.97 L 691.9 268.46 Z" fill="#000000" stroke="#000000" stroke-miterlimit="10" pointer-events="all" style="fill: light-dark(rgb(0, 0, 0), rgb(255, 255, 255)); stroke: light-dark(rgb(0, 0, 0), rgb(255, 255, 255));"/></g><g><rect x="170" y="240.5" width="80" height="30" fill="none" stroke="none" pointer-events="all"/></g><g><g transform="translate(-0.5 -0.5)scale(0.9999999999999999)"><switch><foreignObject style="overflow: visible; text-align: left;" pointer-events="none" width="101%" height="101%" requiredFeatures="http://www.w3.org/TR/SVG11/feature#Extensibility"><div xmlns="http://www.w3.org/1999/xhtml" style="display: flex; align-items: unsafe flex-start; justify-content: unsafe center; width: 78px; height: 1px; padding-top: 248px; margin-left: 171px;"><div style="box-sizing: border-box; font-size: 0; text-align: center; color: #000000; "><div style="display: inline-block; font-size: 12px; font-family: &quot;Helvetica&quot;; color: light-dark(#000000, #ffffff); line-height: 1.2; pointer-events: all; white-space: normal; word-wrap: normal; "><span style="color: light-dark(rgb(71, 85, 105), rgb(155, 167, 184)); font-family: Helvetica; font-size: 11px; font-style: normal; font-variant-ligatures: normal; font-variant-caps: normal; font-weight: 400; letter-spacing: normal; orphans: 2; text-indent: 0px; text-transform: none; widows: 2; word-spacing: 0px; -webkit-text-stroke-width: 0px; white-space: nowrap; background-color: light-dark(rgb(255, 255, 255), rgb(18, 18, 18)); text-decoration-thickness: initial; text-decoration-style: initial; text-decoration-color: initial; float: none; display: inline !important;">JWT Verification</span></div></div></div></foreignObject><text x="210" y="260" fill="light-dark(#000000, #ffffff)" font-family="&quot;Helvetica&quot;" font-size="12px" text-anchor="middle">JWT Verificat...</text></switch></g></g><g><rect x="130" y="1" width="60" height="30" fill="none" stroke="none" pointer-events="all"/></g><g><g transform="translate(-0.5 -0.5)scale(0.9999999999999999)"><switch><foreignObject style="overflow: visible; text-align: left;" pointer-events="none" width="101%" height="101%" requiredFeatures="http://www.w3.org/TR/SVG11/feature#Extensibility"><div xmlns="http://www.w3.org/1999/xhtml" style="display: flex; align-items: unsafe flex-start; justify-content: unsafe center; width: 58px; height: 1px; padding-top: 8px; margin-left: 131px;"><div style="box-sizing: border-box; font-size: 0; text-align: center; color: #000000; "><div style="display: inline-block; font-size: 12px; font-family: &quot;Helvetica&quot;; color: light-dark(#000000, #ffffff); line-height: 1.2; pointer-events: all; white-space: normal; word-wrap: normal; "><span style="font-family: Helvetica; font-size: 11px; font-style: normal; font-variant-ligatures: normal; font-variant-caps: normal; font-weight: 400; letter-spacing: normal; orphans: 2; text-indent: 0px; text-transform: none; widows: 2; word-spacing: 0px; -webkit-text-stroke-width: 0px; white-space: nowrap; background-color: light-dark(rgb(255, 255, 255), rgb(18, 18, 18)); text-decoration-thickness: initial; text-decoration-style: initial; text-decoration-color: initial; float: none; display: inline !important;"><font style="color: light-dark(rgb(0, 0, 0), rgb(237, 237, 237));">Signup / Login</font></span></div></div></div></foreignObject><text x="160" y="20" fill="light-dark(#000000, #ffffff)" font-family="&quot;Helvetica&quot;" font-size="12px" text-anchor="middle">Signup / L...</text></switch></g></g><g><rect x="360" y="1" width="90" height="30" fill="none" stroke="none" pointer-events="all"/></g><g><g transform="translate(-0.5 -0.5)scale(0.9999999999999999)"><switch><foreignObject style="overflow: visible; text-align: left;" pointer-events="none" width="101%" height="101%" requiredFeatures="http://www.w3.org/TR/SVG11/feature#Extensibility"><div xmlns="http://www.w3.org/1999/xhtml" style="display: flex; align-items: unsafe flex-start; justify-content: unsafe center; width: 88px; height: 1px; padding-top: 8px; margin-left: 361px;"><div style="box-sizing: border-box; font-size: 0; text-align: center; color: #000000; "><div style="display: inline-block; font-size: 12px; font-family: &quot;Helvetica&quot;; color: light-dark(#000000, #ffffff); line-height: 1.2; pointer-events: all; white-space: normal; word-wrap: normal; "><span style="font-family: Helvetica; font-size: 11px; font-style: normal; font-variant-ligatures: normal; font-variant-caps: normal; font-weight: 400; letter-spacing: normal; orphans: 2; text-indent: 0px; text-transform: none; widows: 2; word-spacing: 0px; -webkit-text-stroke-width: 0px; white-space: nowrap; background-color: light-dark(rgb(255, 255, 255), rgb(18, 18, 18)); text-decoration-thickness: initial; text-decoration-style: initial; text-decoration-color: initial; float: none; display: inline !important;"><font style="color: light-dark(rgb(0, 0, 0), rgb(237, 237, 237));">JWKS Verification</font></span></div></div></div></foreignObject><text x="405" y="20" fill="light-dark(#000000, #ffffff)" font-family="&quot;Helvetica&quot;" font-size="12px" text-anchor="middle">JWKS Verificati...</text></switch></g></g><g><rect x="560" y="2" width="130" height="30" fill="none" stroke="none" pointer-events="all"/></g><g><g transform="translate(-0.5 -0.5)scale(0.9999999999999999)"><switch><foreignObject style="overflow: visible; text-align: left;" pointer-events="none" width="101%" height="101%" requiredFeatures="http://www.w3.org/TR/SVG11/feature#Extensibility"><div xmlns="http://www.w3.org/1999/xhtml" style="display: flex; align-items: unsafe flex-start; justify-content: unsafe center; width: 128px; height: 1px; padding-top: 9px; margin-left: 561px;"><div style="box-sizing: border-box; font-size: 0; text-align: center; color: #000000; "><div style="display: inline-block; font-size: 12px; font-family: &quot;Helvetica&quot;; color: light-dark(#000000, #ffffff); line-height: 1.2; pointer-events: all; white-space: normal; word-wrap: normal; "><span style="font-family: Helvetica; font-size: 11px; font-style: normal; font-variant-ligatures: normal; font-variant-caps: normal; font-weight: 400; letter-spacing: normal; orphans: 2; text-indent: 0px; text-transform: none; widows: 2; word-spacing: 0px; -webkit-text-stroke-width: 0px; white-space: nowrap; background-color: light-dark(rgb(255, 255, 255), rgb(18, 18, 18)); text-decoration-thickness: initial; text-decoration-style: initial; text-decoration-color: initial; float: none; display: inline !important;"><font style="color: light-dark(rgb(0, 0, 0), rgb(237, 237, 237));">Authorizer Invocation</font></span></div></div></div></foreignObject><text x="625" y="21" fill="light-dark(#000000, #ffffff)" font-family="&quot;Helvetica&quot;" font-size="12px" text-anchor="middle">Authorizer Invocation</text></switch></g></g><g><rect x="800" y="71" width="120" height="30" fill="none" stroke="none" pointer-events="all"/></g><g><g transform="translate(-0.5 -0.5)scale(0.9999999999999999)"><switch><foreignObject style="overflow: visible; text-align: left;" pointer-events="none" width="101%" height="101%" requiredFeatures="http://www.w3.org/TR/SVG11/feature#Extensibility"><div xmlns="http://www.w3.org/1999/xhtml" style="display: flex; align-items: unsafe flex-start; justify-content: unsafe center; width: 118px; height: 1px; padding-top: 78px; margin-left: 801px;"><div style="box-sizing: border-box; font-size: 0; text-align: center; color: #000000; "><div style="display: inline-block; font-size: 12px; font-family: &quot;Helvetica&quot;; color: light-dark(#000000, #ffffff); line-height: 1.2; pointer-events: all; white-space: normal; word-wrap: normal; "><span style="font-family: Helvetica; font-size: 11px; font-style: normal; font-variant-ligatures: normal; font-variant-caps: normal; font-weight: 400; letter-spacing: normal; orphans: 2; text-indent: 0px; text-transform: none; widows: 2; word-spacing: 0px; -webkit-text-stroke-width: 0px; white-space: nowrap; background-color: light-dark(rgb(255, 255, 255), rgb(18, 18, 18)); text-decoration-thickness: initial; text-decoration-style: initial; text-decoration-color: initial; float: none; display: inline !important;"><font style="color: light-dark(rgb(0, 0, 0), rgb(237, 237, 237));">WebSocket Push</font></span></div></div></div></foreignObject><text x="860" y="90" fill="light-dark(#000000, #ffffff)" font-family="&quot;Helvetica&quot;" font-size="12px" text-anchor="middle">WebSocket Push</text></switch></g></g></g><switch><g requiredFeatures="http://www.w3.org/TR/SVG11/feature#Extensibility"/><a transform="translate(0,-5)" xlink:href="https://www.drawio.com/doc/faq/svg-export-text-problems" target="_blank"><text text-anchor="middle" font-size="10px" x="50%" y="100%">Text is not SVG - cannot display</text></a></switch></svg>